<svg width="100" height="101" viewBox="0 0 100 101" fill="none" xmlns="http://www.w3.org/2000/svg">
<path d="M91.6914 37.409L21.6952 2.39894C18.9328 1.02359 15.8136 0.533962 12.7628 0.9968C9.71209 1.45964 6.87828 2.85242 4.64776 4.98526C2.41724 7.1181 0.898569 9.8872 0.298802 12.915C-0.300966 15.9428 0.0473584 19.082 1.29628 21.9045L13.2956 48.7622C13.5679 49.4116 13.7081 50.1087 13.7081 50.8128C13.7081 51.517 13.5679 52.2141 13.2956 52.8634L1.29628 79.7211C0.27984 82.0053 -0.149859 84.5074 0.0462372 87C0.242334 89.4926 1.05801 91.8967 2.41913 93.9937C3.78026 96.0908 5.64368 97.8143 7.84004 99.0077C10.0364 100.201 12.4961 100.827 14.9955 100.827C17.3366 100.804 19.6427 100.257 21.7452 99.2267L91.7414 64.2167C94.2242 62.9672 96.3112 61.0523 97.7695 58.6855C99.2278 56.3187 100 53.5931 100 50.8128C100 48.0326 99.2278 45.307 97.7695 42.9402C96.3112 40.5734 94.2242 38.6584 91.7414 37.409H91.6914ZM87.2416 55.2641L17.2454 90.2741C16.3263 90.7156 15.2942 90.8654 14.2875 90.7035C13.2808 90.5415 12.3477 90.0756 11.6133 89.3681C10.8788 88.6606 10.3782 87.7455 10.1785 86.7453C9.97871 85.7451 10.0894 84.7077 10.4958 83.7723L22.4451 56.9146C22.5998 56.5559 22.7334 56.1885 22.8451 55.8143H57.2932C58.6193 55.8143 59.8909 55.2873 60.8286 54.3494C61.7662 53.4114 62.293 52.1393 62.293 50.8128C62.293 49.4864 61.7662 48.2142 60.8286 47.2763C59.8909 46.3383 58.6193 45.8114 57.2932 45.8114H22.8451C22.7334 45.4371 22.5998 45.0697 22.4451 44.7111L10.4958 17.8534C10.0894 16.9179 9.97871 15.8806 10.1785 14.8804C10.3782 13.8802 10.8788 12.965 11.6133 12.2575C12.3477 11.55 13.2808 11.0841 14.2875 10.9221C15.2942 10.7602 16.3263 10.91 17.2454 11.3515L87.2416 46.3615C88.0606 46.7813 88.7479 47.4189 89.2278 48.2043C89.7077 48.9897 89.9617 49.8923 89.9617 50.8128C89.9617 51.7333 89.7077 52.636 89.2278 53.4213C88.7479 54.2067 88.0606 54.8444 87.2416 55.2641Z" fill="currentColor"/>
</svg> 