<svg width="150" height="50" viewBox="0 0 150 50" fill="none" xmlns="http://www.w3.org/2000/svg">
  <path d="M28.832 38L19.112 24.376V38H13V12.4H19.112V25.832L28.832 12.4H36.496L24.92 27.736L36.496 38H28.832Z" fill="#0062E6"/>
  <path d="M46.232 38H40.12V12.4H57.064V17.624H46.232V22.36H56.536V27.584H46.232V38Z" fill="#0062E6"/>
  <path d="M72.566 38L68.654 30.72H67.286V38H61.174V12.4H71.55C73.6313 12.4 75.429 12.7707 76.942 13.512C78.4843 14.2533 79.649 15.28 80.446 16.592C81.2723 17.904 81.686 19.4 81.686 21.08C81.686 22.7787 81.2503 24.2853 80.38 25.608C79.539 26.9307 78.3123 27.9573 76.722 28.688L81.334 38H72.566ZM67.286 25.92H71.22C72.2693 25.92 73.0443 25.656 73.545 25.128C74.075 24.5707 74.339 23.7493 74.339 22.664C74.339 21.6347 74.075 20.8347 73.545 20.264C73.0443 19.6933 72.2693 19.408 71.22 19.408H67.286V25.92Z" fill="#0062E6"/>
  <path d="M103.783 12.4V17.624H96.559V38H90.447V17.624H83.223V12.4H103.783Z" fill="#0062E6"/>
  <path d="M117.894 38.352C115.58 38.352 113.485 37.8513 111.606 36.85C109.757 35.8193 108.289 34.4053 107.198 32.608C106.136 30.7813 105.606 28.7013 105.606 26.368C105.606 24.0347 106.146 21.9547 107.226 20.128C108.307 18.3013 109.786 16.8873 111.654 15.888C113.522 14.8593 115.607 14.344 117.91 14.344C120.213 14.344 122.298 14.8593 124.166 15.888C126.034 16.8873 127.504 18.3013 128.574 20.128C129.645 21.9547 130.182 24.0347 130.182 26.368C130.182 28.7013 129.635 30.7813 128.542 32.608C127.478 34.4053 126.002 35.8193 124.112 36.85C122.252 37.8513 120.176 38.352 117.894 38.352ZM117.894 32.368C119.517 32.368 120.85 31.8 121.89 30.664C122.96 29.528 123.494 28.096 123.494 26.368C123.494 24.64 122.97 23.208 121.922 22.072C120.903 20.936 119.58 20.368 117.958 20.368C116.314 20.368 114.98 20.936 113.958 22.072C112.936 23.1787 112.426 24.6107 112.426 26.368C112.426 28.1253 112.925 29.5573 113.926 30.664C114.926 31.8 116.25 32.368 117.894 32.368Z" fill="#0062E6"/>
</svg> 