<svg width="100" height="100" viewBox="0 0 100 100" fill="none" xmlns="http://www.w3.org/2000/svg">
<path d="M12.5 25.0002C12.5 20.5799 14.2559 16.3407 17.3816 13.215C20.5072 10.0894 24.7464 8.3335 29.1667 8.3335H87.5V91.6668H29.1667C24.7464 91.6668 20.5072 89.9109 17.3816 86.7853C14.2559 83.6597 12.5 79.4204 12.5 75.0002V25.0002ZM20.8333 60.5627C23.3673 59.1012 26.2414 58.3324 29.1667 58.3335H79.1667V16.6668H29.1667C26.9565 16.6668 24.8369 17.5448 23.2741 19.1076C21.7113 20.6704 20.8333 22.79 20.8333 25.0002V60.5627ZM79.1667 66.6668H29.1667C26.9565 66.6668 24.8369 67.5448 23.2741 69.1076C21.7113 70.6704 20.8333 72.79 20.8333 75.0002C20.8333 77.2103 21.7113 79.3299 23.2741 80.8927C24.8369 82.4555 26.9565 83.3335 29.1667 83.3335H79.1667V66.6668ZM41.6667 25.0002H70.8333V33.3335H41.6667V25.0002Z" fill="currentColor"/>
</svg> 