<svg width="100" height="100" viewBox="0 0 100 100" fill="none" xmlns="http://www.w3.org/2000/svg">
<path d="M97.3138 43.4952C97.3115 43.4929 97.3092 43.4906 97.3069 43.4883L56.5107 2.69775C54.7718 0.958252 52.4598 0 50.0006 0C47.5414 0 45.2295 0.957489 43.4898 2.69699L2.71492 43.4669C2.70118 43.4807 2.68745 43.4952 2.67372 43.5089C-0.897206 47.1001 -0.891101 52.9266 2.69126 56.5086C4.32794 58.1459 6.48956 59.0942 8.80074 59.1934C8.89459 59.2026 8.98921 59.2072 9.08459 59.2072H10.7106V89.2265C10.7106 95.1668 15.5443 100 21.4867 100H37.4475C39.0651 100 40.3774 98.6885 40.3774 97.0703V73.5352C40.3774 70.8244 42.5826 68.6195 45.2936 68.6195H54.7077C57.4187 68.6195 59.6238 70.8244 59.6238 73.5352V97.0703C59.6238 98.6885 60.9354 100 62.5538 100H78.5146C84.457 100 89.2907 95.1668 89.2907 89.2265V59.2072H90.7984C93.2568 59.2072 95.5688 58.2497 97.3092 56.5102C100.895 52.9221 100.897 47.0856 97.3138 43.4952V43.4952Z" fill="#0EA300"/>
</svg>
