<svg width="25" height="26" viewBox="0 0 25 26" fill="none" xmlns="http://www.w3.org/2000/svg">
<g clip-path="url(#clip0_244_396)">
<path d="M24.3254 11.6878C24.3249 11.6872 24.3243 11.6866 24.3237 11.686L14.1257 1.4884C13.691 1.05353 13.1131 0.813965 12.4984 0.813965C11.8836 0.813965 11.3057 1.05334 10.8708 1.48821L0.678141 11.6807C0.674708 11.6841 0.671275 11.6878 0.667842 11.6912C-0.224797 12.589 -0.223271 14.0456 0.672229 14.9411C1.08135 15.3504 1.62171 15.5875 2.19944 15.6123C2.2229 15.6146 2.24655 15.6158 2.2704 15.6158H2.67685V23.1206C2.67685 24.6057 3.88516 25.814 5.3706 25.814H9.36039C9.76475 25.814 10.0928 25.4861 10.0928 25.0815V19.1978C10.0928 18.5201 10.644 17.9688 11.3217 17.9688H13.675C14.3527 17.9688 14.9039 18.5201 14.9039 19.1978V25.0815C14.9039 25.4861 15.2318 25.814 15.6363 25.814H19.6261C21.1116 25.814 22.3199 24.6057 22.3199 23.1206V15.6158H22.6968C23.3113 15.6158 23.8892 15.3764 24.3243 14.9415C25.2208 14.0445 25.2211 12.5854 24.3254 11.6878Z" fill="#0EA300"/>
</g>
<defs>
<clipPath id="clip0_244_396">
<rect width="25" height="25" fill="white" transform="translate(0 0.813965)"/>
</clipPath>
</defs>
</svg>
