<svg width="100" height="100" viewBox="0 0 100 100" fill="none" xmlns="http://www.w3.org/2000/svg">
<path fill-rule="evenodd" clip-rule="evenodd" d="M0 35C0 32.3478 1.05357 29.8043 2.92893 27.9289C4.8043 26.0536 7.34784 25 10 25H90C92.6522 25 95.1957 26.0536 97.0711 27.9289C98.9464 29.8043 100 32.3478 100 35V90C100 92.6522 98.9464 95.1957 97.0711 97.0711C95.1957 98.9464 92.6522 100 90 100H10C7.34784 100 4.8043 98.9464 2.92893 97.0711C1.05357 95.1957 0 92.6522 0 90V35ZM90 35H10V90H90V35Z" fill="#0EA300"/>
<path fill-rule="evenodd" clip-rule="evenodd" d="M28.75 47.5001C28.75 46.5055 29.1451 45.5517 29.8483 44.8484C30.5516 44.1452 31.5054 43.7501 32.5 43.7501H67.5C68.4946 43.7501 69.4484 44.1452 70.1516 44.8484C70.8549 45.5517 71.25 46.5055 71.25 47.5001C71.25 48.4946 70.8549 49.4485 70.1516 50.1517C69.4484 50.855 68.4946 51.2501 67.5 51.2501H32.5C31.5054 51.2501 30.5516 50.855 29.8483 50.1517C29.1451 49.4485 28.75 48.4946 28.75 47.5001ZM23.75 62.5001C23.75 61.5055 24.1451 60.5517 24.8483 59.8484C25.5516 59.1452 26.5054 58.7501 27.5 58.7501H72.5C73.4946 58.7501 74.4484 59.1452 75.1516 59.8484C75.8549 60.5517 76.25 61.5055 76.25 62.5001C76.25 63.4946 75.8549 64.4485 75.1516 65.1517C74.4484 65.855 73.4946 66.2501 72.5 66.2501H27.5C26.5054 66.2501 25.5516 65.855 24.8483 65.1517C24.1451 64.4485 23.75 63.4946 23.75 62.5001ZM28.75 77.5001C28.75 76.5055 29.1451 75.5517 29.8483 74.8484C30.5516 74.1452 31.5054 73.7501 32.5 73.7501H67.5C68.4946 73.7501 69.4484 74.1452 70.1516 74.8484C70.8549 75.5517 71.25 76.5055 71.25 77.5001C71.25 78.4946 70.8549 79.4485 70.1516 80.1517C69.4484 80.855 68.4946 81.2501 67.5 81.2501H32.5C31.5054 81.2501 30.5516 80.855 29.8483 80.1517C29.1451 79.4485 28.75 78.4946 28.75 77.5001ZM57.07 14.1401C55.1947 12.2654 52.6516 11.2122 50 11.2122C47.3484 11.2122 44.8053 12.2654 42.93 14.1401L23.535 33.5401C23.0704 34.0043 22.519 34.3725 21.9122 34.6236C21.3053 34.8747 20.655 35.0038 19.9982 35.0036C19.3415 35.0034 18.6912 34.8738 18.0846 34.6222C17.4779 34.3707 16.9267 34.0021 16.4625 33.5376C15.9983 33.073 15.6301 32.5216 15.379 31.9148C15.1279 31.3079 14.9988 30.6576 14.999 30.0008C14.9992 29.3441 15.1288 28.6938 15.3803 28.0871C15.6319 27.4805 16.0004 26.9293 16.465 26.4651L35.86 7.07009C39.6106 3.32066 44.6967 1.21436 50 1.21436C55.3033 1.21436 60.3894 3.32066 64.14 7.07009L83.54 26.4651C84.4775 27.4033 85.004 28.6755 85.0035 30.0019C85.003 31.3282 84.4757 32.6 83.5375 33.5376C82.5993 34.4751 81.3271 35.0016 80.0007 35.0011C78.6744 35.0006 77.4025 34.4733 76.465 33.5351L57.07 14.1401Z" fill="#0EA300"/>
</svg>
