<svg width="18" height="16" viewBox="0 0 18 16" fill="none" xmlns="http://www.w3.org/2000/svg">
<path d="M3.03739 13.0812C2.76471 12.9166 2.54799 12.6929 2.38721 12.4101C2.22644 12.1264 2.14605 11.8087 2.14605 11.4568V7.04678L0.454739 6.04238C0.30034 5.9438 0.185602 5.82701 0.110527 5.69203C0.0354522 5.55705 -0.00137716 5.40766 3.93474e-05 5.24386C0.00145586 5.08006 0.0389934 4.93067 0.112652 4.79569C0.18631 4.66071 0.300694 4.54392 0.455802 4.44534L7.70126 0.213873C7.83016 0.137282 7.96296 0.0826826 8.09965 0.0500745C8.23634 0.0174664 8.37658 0.000783055 8.52035 2.47278e-05C8.66413 -0.0007336 8.80472 0.0159498 8.94212 0.0500745C9.07952 0.0841992 9.21267 0.13842 9.34158 0.212736L17.5442 4.97541C17.6944 5.0702 17.8077 5.18888 17.8842 5.33145C17.9614 5.47477 18 5.62947 18 5.79554V11.938C18 12.0988 17.949 12.2337 17.847 12.3429C17.745 12.4521 17.619 12.5067 17.4688 12.5067C17.3187 12.5067 17.1922 12.4521 17.0895 12.3429C16.9868 12.2337 16.9362 12.0988 16.9376 11.938V5.88313L14.8947 7.04678V11.4568C14.8947 11.8087 14.8143 12.1264 14.6535 12.4101C14.4927 12.6937 14.2763 12.9174 14.0044 13.0812L9.34583 15.7816C9.21409 15.8612 9.07952 15.9177 8.94212 15.9511C8.80472 15.9844 8.66413 16.0007 8.52035 16C8.37658 15.9992 8.23599 15.9829 8.09859 15.9511C7.96119 15.9192 7.82662 15.8623 7.69488 15.7804L3.03739 13.0812ZM8.27494 9.32177C8.37056 9.3794 8.45555 9.40821 8.52991 9.40821C8.60499 9.40821 8.69033 9.3794 8.78595 9.32177L15.7764 5.24386L8.78595 1.1887C8.69104 1.13031 8.60605 1.10112 8.53098 1.10112C8.4559 1.10112 8.37091 1.13031 8.27601 1.1887L1.26428 5.24386L8.27494 9.32177ZM8.25476 14.8181C8.35037 14.8765 8.4389 14.9057 8.52035 14.9057C8.6018 14.9057 8.69033 14.8765 8.78595 14.8181L13.5263 12.0756C13.6354 12.0028 13.7133 11.919 13.76 11.8242C13.8068 11.7295 13.8309 11.6089 13.8323 11.4625V7.6724L9.3522 10.2909C9.21976 10.3705 9.08519 10.427 8.94849 10.4604C8.81322 10.493 8.6705 10.5093 8.52035 10.5093C8.3702 10.5093 8.22714 10.493 8.09115 10.4604C7.95517 10.4278 7.82095 10.3709 7.68851 10.2898L3.20844 7.67354V11.4637C3.20844 11.5804 3.23216 11.6938 3.27962 11.8038C3.32707 11.913 3.40533 12.004 3.5144 12.0768L8.25476 14.8181Z" fill="#A0A3BD"/>
</svg>
