<svg width="20" height="24" viewBox="0 0 20 24" fill="none" xmlns="http://www.w3.org/2000/svg">
<path d="M19 23V4.98522C18.9999 4.79216 18.9007 4.60401 18.7166 4.44738C18.5325 4.29074 18.2727 4.17355 17.974 4.11237L2.974 1.04759C2.74846 1.00126 2.50816 0.988517 2.27298 1.01042C2.03781 1.03232 1.81453 1.08824 1.62161 1.17354C1.42869 1.25884 1.27169 1.37108 1.1636 1.50096C1.0555 1.63084 0.999426 1.77463 1 1.92044V23" stroke="#A0A3BD" stroke-width="1.6" stroke-linecap="round" stroke-linejoin="round"/>
<path d="M12.998 17.1943V18.1138" stroke="#A0A3BD" stroke-width="1.6" stroke-linecap="round" stroke-linejoin="round"/>
<path d="M12.998 12.5967V13.5161" stroke="#A0A3BD" stroke-width="1.6" stroke-linecap="round" stroke-linejoin="round"/>
<path d="M12.998 8V8.91943" stroke="#A0A3BD" stroke-width="1.6" stroke-linecap="round" stroke-linejoin="round"/>
<path d="M7.00146 17.1943V18.1138" stroke="#A0A3BD" stroke-width="1.6" stroke-linecap="round" stroke-linejoin="round"/>
<path d="M7.00146 12.5967V13.5161" stroke="#A0A3BD" stroke-width="1.6" stroke-linecap="round" stroke-linejoin="round"/>
<path d="M7.00146 8V8.91943" stroke="#A0A3BD" stroke-width="1.6" stroke-linecap="round" stroke-linejoin="round"/>
</svg>
