<svg width="100" height="100" viewBox="0 0 100 100" fill="none" xmlns="http://www.w3.org/2000/svg">
<path d="M39.5833 66.6667C32.0139 66.6667 25.6083 64.0444 20.3667 58.8C15.125 53.5556 12.5028 47.15 12.5 39.5833C12.4972 32.0167 15.1194 25.6111 20.3667 20.3667C25.6139 15.1222 32.0194 12.5 39.5833 12.5C47.1472 12.5 53.5542 15.1222 58.8042 20.3667C64.0542 25.6111 66.675 32.0167 66.6667 39.5833C66.6667 42.6389 66.1806 45.5208 65.2083 48.2292C64.2361 50.9375 62.9167 53.3333 61.25 55.4167L84.5833 78.75C85.3472 79.5139 85.7292 80.4861 85.7292 81.6667C85.7292 82.8472 85.3472 83.8194 84.5833 84.5833C83.8194 85.3472 82.8472 85.7292 81.6667 85.7292C80.4861 85.7292 79.5139 85.3472 78.75 84.5833L55.4167 61.25C53.3333 62.9167 50.9375 64.2361 48.2292 65.2083C45.5208 66.1806 42.6389 66.6667 39.5833 66.6667ZM39.5833 58.3333C44.7917 58.3333 49.2194 56.5111 52.8667 52.8667C56.5139 49.2222 58.3361 44.7944 58.3333 39.5833C58.3306 34.3722 56.5083 29.9458 52.8667 26.3042C49.225 22.6625 44.7972 20.8389 39.5833 20.8333C34.3694 20.8278 29.9431 22.6514 26.3042 26.3042C22.6653 29.9569 20.8417 34.3833 20.8333 39.5833C20.825 44.7833 22.6486 49.2111 26.3042 52.8667C29.9597 56.5222 34.3861 58.3444 39.5833 58.3333Z" fill="#0EA300"/>
</svg>
